# AST/ASF file generated using VICON BodyLanguage
# -----------------------------------------------
:version 1.10
:name VICON
:units
  mass 1.0
  length 0.45
  angle deg
:documentation
   .ast/.asf automatically generated from VICON data using
   VICON BodyBuilder and BodyLanguage model FoxedUp or BRILLIANT.MOD
:root
   order TX TY TZ RX RY RZ
   axis XYZ
   position 0 0 0  
   orientation 0 0 0 
:bonedata
  begin
     id 1 
     name lhipjoint
     direction 0.623529 -0.717805 0.309788 
     length 2.23224 
     axis 0 0 0  XYZ
  end
  begin
     id 2 
     name lfemur
     direction 0.34202 -0.939693 0  
     length 7.11402  
     axis 0 0 20  XYZ
    dof rx ry rz
    limits (-160.0 20.0)
           (-70.0 70.0)
           (-60.0 70.0)
  end
  begin
     id 3 
     name ltibia
     direction 0.34202 -0.939693 0   
     length 6.78496   
     axis 0 0 20   XYZ
    dof rx
    limits (-10.0 170.0)
  end
  begin
     id 4 
     name lfoot
     direction 0.125078 -0.343648 0.930732   
     length 1.84054   
     axis -90 7.62852e-016 20   XYZ
    dof rx rz
    limits (-45.0 90.0)
           (-70.0 20.0)
  end
  begin
     id 5 
     name ltoes
     direction 1.53565e-011 -4.21893e-011 1   
     length 0.916474   
     axis -90 7.62852e-016 20   XYZ
    dof rx
    limits (-90.0 20.0)
  end
  begin
     id 6 
     name rhipjoint
     direction -0.564688 -0.757748 0.327026   
     length 2.11457  
     axis 0 0 0  XYZ 
  end
  begin
     id 7 
     name rfemur
     direction -0.34202 -0.939693 0   
     length 7.14609   
     axis 0 0 -20   XYZ
    dof rx ry rz
    limits (-160.0 20.0)
           (-70.0 70.0)
           (-70.0 60.0)
  end
  begin
     id 8 
     name rtibia
     direction -0.34202 -0.939693 0   
     length 6.78101   
     axis 0 0 -20   XYZ
    dof rx
    limits (-10.0 170.0)
 end
 begin
     id 9 
     name rfoot
     direction -0.0992671 -0.272734 0.956955   
     length 1.96168  
     axis -90 -7.62852e-016 -20   XYZ
    dof rx rz
    limits (-45.0 90.0)
           (-20.0 70.0)
  end
  begin
     id 10 
     name rtoes
     direction -1.5356e-011 -4.21891e-011 1   
     length 0.982933   
     axis -90 -7.62852e-016 -20   XYZ
    dof rx
    limits (-90.0 20.0)
  end
  begin
     id 11 
     name lowerback
     direction -0.00596953 0.998668 0.0512524   
     length 1.87557   
     axis 0 0 0   XYZ
    dof rx ry rz
    limits (-20.0 45.0)
           (-30.0 30.0)
           (-30.0 30.0)
  end
  begin
     id 12 
     name upperback
     direction 0.00584879 0.999652 0.0257308   
     length 1.87883   
     axis 0 0 0   XYZ
    dof rx ry rz
    limits (-20.0 45.0)
           (-30.0 30.0)
           (-30.0 30.0)
  end
  begin
     id 13 
     name thorax
     direction 0.010104 0.999947 0.00178881   
     length 1.87779   
     axis 0 0 0   XYZ
    dof rx ry rz
    limits (-20.0 45.0)
           (-30.0 30.0)
           (-30.0 30.0)
  end
  begin
     id 14 
     name lowerneck
     direction 0.0120771 0.995934 -0.0892773   
     length 1.40897   
     axis 0 0 0   XYZ
    dof rx ry rz
    limits (-20.0 45.0)
           (-30.0 30.0)
           (-30.0 30.0)
  end
  begin
     id 15 
     name upperneck
     direction -0.030568 0.999465 -0.0116366   
     length 1.38661   
     axis 0 0 0   XYZ
    dof rx ry rz
    limits (-20.0 45.0)
           (-30.0 30.0)
           (-30.0 30.0)
  end
  begin
     id 16
     name head
     direction -0.0170715 0.999854 -0.00104426  
     length 1.47052  
     axis 0 0 0   XYZ
    dof rx ry rz
    limits (-20.0 45.0)
           (-30.0 30.0)
           (-30.0 30.0)
  end
  begin
     id 17 
     name lclavicle
     direction 0.977763 0.206143 0.038532  
     length 3.02424  
     axis 0 0 0   XYZ
    dof ry rz
    limits (-20.0 10.0)
           (0.0 20.0)
  end
  begin
     id 18 
     name lhumerus
     direction 1 -4.48965e-011 -2.62654e-027   
     length 4.68382   
     axis 180 -30 -90   XYZ
    dof rx ry rz
    limits (-60.0 90.0)
           (-90.0 90.0)
           (-90.0 90.0)
  end
  begin
     id 19
     name lradius
     direction 1 -4.48973e-011 -1.54954e-027   
     length 2.98124   
     axis 180 -30 -90   XYZ
    dof rx
    limits (-10.0 170.0)
  end
  begin
     id 20
     name lwrist
     direction 1 -4.48959e-011 7.20928e-028   
     length 1.49062   
     axis -5.52449e-016 90 90   XYZ
    dof ry
    limits (-180.0 0.0)
 end
  begin
     id 21 
     name lhand
     direction 1 -4.48971e-011 1.44186e-027   
     length 0.707595   
     axis -9.20027e-016 90 90   XYZ
    dof rx rz
    limits (-90.0 90.0)
           (-45.0 45.0)
  end
  begin
     id 22 
     name lfingers
     direction 1 -4.48985e-011 2.88371e-027   
     length 0.570481   
     axis -1.84005e-015 90 90   XYZ
    dof rx
    limits (0.0 90.0)
  end
  begin
     id 23
     name lthumb
     direction 0.707107 -6.34929e-011 0.707107   
     length 0.819101   
     axis -90 45 2.85299e-015   XYZ
    dof rx rz
    limits (-45.0 45.0)
           (-45.0 45.0)
  end
  begin
     id 24 
     name rclavicle
     direction -0.958661 0.284411 -0.00895327   
     length 3.11921  
     axis 0 0 0   XYZ 
    dof ry rz
    limits (-10.0 20.0)
           (-20.0 0.0)
  end
  begin
     id 25 
     name rhumerus
     direction -1 -4.48963e-011 -4.22193e-027  
     length 4.75876   
     axis 180 30 90   XYZ
    dof rx ry rz
    limits (-90.0 60.0)
           (-90.0 90.0)
           (-90.0 90.0)
  end
  begin
     id 26 
     name rradius
     direction -1 -4.48968e-011 -1.07616e-027   
     length 2.93293   
     axis 180 30 90   XYZ
    dof rx
    limits (-10.0 170.0)
  end
  begin
     id 27 
     name rwrist
     direction -1 -4.48965e-011 7.20928e-028   
     length 1.46647   
     axis -5.52449e-016 -90 -90   XYZ
    dof ry
    limits (-180.0 0.0)
  end
  begin
     id 28
     name rhand
     direction -1 -4.48971e-011 1.44186e-027   
     length 0.831748   
     axis -9.20027e-016 -90 -90   XYZ
    dof rx rz
    limits (-90.0 90.0)
           (-45.0 45.0)
  end
  begin
     id 29
     name rfingers
     direction -1 -4.48961e-011 2.88371e-027   
     length 0.670577   
     axis -1.84005e-015 -90 -90   XYZ
    dof rx
    limits (0.0 90.0)
  end
  begin
     id 30
     name rthumb
     direction -0.707107 -6.34929e-011 0.707107   
     length 0.962818   
     axis -90 -45 -2.85299e-015   XYZ
    dof rx rz
    limits (-45.0 45.0)
           (-45.0 45.0)
  end
:hierarchy
  begin
    root lhipjoint rhipjoint lowerback
    lhipjoint lfemur
    lfemur ltibia
    ltibia lfoot
    lfoot ltoes
    rhipjoint rfemur
    rfemur rtibia
    rtibia rfoot
    rfoot rtoes
    lowerback upperback
    upperback thorax
    thorax lowerneck lclavicle rclavicle
    lowerneck upperneck
    upperneck head
    lclavicle lhumerus
    lhumerus lradius
    lradius lwrist
    lwrist lhand lthumb
    lhand lfingers
    rclavicle rhumerus
    rhumerus rradius
    rradius rwrist
    rwrist rhand rthumb
    rhand rfingers
  end

#!OML:ASF E:\id_vita\Project 1\Capture day 1\Session 1\Female.ASF
:FULLY-SPECIFIED
:DEGREES
468
root -21.7377 16.3993 2.73095 -169.293 13.7458 -177.764
lowerback -15.1563 0.425215 -2.23982
upperback -4.82777 1.40807 1.43195
thorax 3.2932 0.954661 3.03396
lowerneck 2.9937 2.64306 1.30215
upperneck 12.4784 4.26448 1.12347
head 3.50476 2.54522 0.253872
rclavicle -4.66212e-015 5.96354e-015
rhumerus 74.1158 -9.79536 -57.1475
rradius 127.718
rwrist -25.9467
rhand -3.07286 6.68015
rfingers 7.12502
rthumb 22.644 -22.0115
lclavicle -4.66212e-015 5.96354e-015
lhumerus -31.0446 -10.5654 99.1396
lradius 18.9037
lwrist -32.4504
lhand 28.9745 29.2262
lfingers 7.12502
lthumb 52.7827 48.8552
rfemur -12.9105 14.4687 15.0355
rtibia 18.9095
rfoot -5.03816 -21.7293
rtoes -18.1209
lfemur -19.4896 -7.174 -17.8406
ltibia 28.8567
lfoot -24.0919 6.70752
ltoes 0.873081
469
root -21.7514 16.3964 2.71772 -169.172 13.7675 -177.818
lowerback -15.4293 0.448245 -2.0736
upperback -4.81194 1.42619 1.38383
thorax 3.46024 0.962571 2.90078
lowerneck 3.07098 2.69115 1.37932
upperneck 12.2545 4.34323 0.783538
head 3.42278 2.56584 0.126388
rclavicle 2.90163e-014 1.3418e-014
rhumerus 74.2514 -9.7925 -56.9937
rradius 127.618
rwrist -25.8907
rhand -2.7088 6.8577
rfingers 7.12502
rthumb 22.9934 -21.7909
lclavicle 2.90163e-014 1.3418e-014
lhumerus -31.0053 -10.5955 99.1441
lradius 18.8966
lwrist -32.4788
lhand 29.1553 29.6923
lfingers 7.12502
lthumb 52.9459 49.2188
rfemur -13.0989 14.3843 14.8317
rtibia 18.9716
rfoot -5.5967 -21.5798
rtoes -19.4807
lfemur -19.5687 -8.16293 -17.9051
ltibia 28.8315
lfoot -23.8707 7.63141
ltoes 1.09921
470
root -21.7486 16.3979 2.72877 -169.232 13.8277 -177.905
lowerback -15.2368 0.397309 -2.27355
upperback -4.87018 1.38569 1.42366
thorax 3.29266 0.947436 3.04214
lowerneck 3.50108 2.76525 1.56026
upperneck 11.8544 4.48379 0.257418
head 3.22405 2.61725 -0.086685
rclavicle 4.59387e-014 -3.66509e-015
rhumerus 74.445 -9.63964 -56.8923
rradius 127.357
rwrist -25.8433
rhand -2.37385 7.02772
rfingers 7.12502
rthumb 23.3148 -21.5805
lclavicle 4.59387e-014 -3.66509e-015
lhumerus -31.1081 -10.4772 99.1372
lradius 18.9235
lwrist -32.5487
lhand 29.1393 29.9574
lfingers 7.12502
lthumb 52.9315 49.493
rfemur -13.1103 14.3505 14.8041
rtibia 19.0656
rfoot -4.92287 -21.4018
rtoes -16.6188
lfemur -19.5336 -6.98006 -18.0652
ltibia 28.7905
lfoot -24.1086 6.44754
ltoes 1.43635
471
root -21.7492 16.3981 2.73163 -169.296 13.8793 -177.957
lowerback -15.1384 0.422484 -2.33355
upperback -4.84888 1.42021 1.40509
thorax 3.25907 0.962052 3.05997
lowerneck 3.50151 2.75231 1.81313
upperneck 11.7902 4.51752 -0.342037
head 3.22609 2.62278 -0.323137
rclavicle 3.27218e-015 -3.39176e-015
rhumerus 74.6608 -9.70003 -56.7246
rradius 126.965
rwrist -25.8356
rhand -2.6473 7.33496
rfingers 7.12502
rthumb 23.0524 -21.3063
lclavicle 3.27218e-015 -3.39176e-015
lhumerus -31.1468 -10.8951 99.2611
lradius 18.9727
lwrist -32.2023
lhand 28.948 29.8425
lfingers 7.12502
lthumb 52.7587 49.4865
rfemur -13.1049 14.2907 14.7756
rtibia 19.1633
rfoot -5.13446 -21.4185
rtoes -17.7865
lfemur -19.4672 -6.58693 -18.1529
ltibia 28.7513
lfoot -24.2097 6.09217
ltoes 1.54973
472
root -21.7516 16.3974 2.73051 -169.277 13.9412 -177.976
lowerback -15.1656 0.446011 -2.32225
upperback -4.85716 1.45182 1.41605
thorax 3.2627 0.978683 3.07127
lowerneck 3.33556 2.73421 1.63978
upperneck 11.9704 4.52684 -0.606439
head 3.3224 2.61606 -0.373368
rclavicle 7.9013e-015 -9.16584e-015
rhumerus 74.7992 -9.75448 -56.47
rradius 126.568
rwrist -25.9254
rhand -3.00258 7.61879
rfingers 7.12502
rthumb 22.7115 -21.0646
lclavicle 7.9013e-015 -9.16584e-015
lhumerus -31.2358 -11.3059 99.4627
lradius 19.029
lwrist -31.7856
lhand 28.7035 29.7075
lfingers 7.12502
lthumb 52.5377 49.4883
rfemur -13.1888 14.2533 14.7253
rtibia 19.2457
rfoot -5.20446 -21.3493
rtoes -17.6718
lfemur -19.4688 -6.5117 -18.1937
ltibia 28.7218
lfoot -24.2358 6.10084
ltoes 1.4171
473
root -21.7529 16.397 2.72894 -169.23 13.9883 -177.993
lowerback -15.1812 0.462117 -2.36687
upperback -4.89292 1.48481 1.44086
thorax 3.22933 0.998831 3.12827
lowerneck 3.12822 2.72367 1.41238
upperneck 12.1579 4.54036 -0.801424
head 3.42599 2.61018 -0.391186
rclavicle 2.58327e-014 2.15433e-014
rhumerus 74.8436 -9.77597 -56.2266
rradius 126.302
rwrist -25.9667
rhand -2.86098 7.93215
rfingers 7.12502
rthumb 22.8474 -20.7345
lclavicle 2.58327e-014 2.15433e-014
lhumerus -31.3003 -11.4639 99.579
lradius 19.0259
lwrist -31.6971
lhand 28.5964 29.6297
lfingers 7.12502
lthumb 52.4407 49.4698
rfemur -13.2678 14.3066 14.6704
rtibia 19.2829
rfoot -5.27782 -21.3774
rtoes -17.2388
lfemur -19.5193 -6.39543 -18.2264
ltibia 28.7179
lfoot -24.2334 6.10598
ltoes 1.13902
474
root -21.7535 16.3963 2.72667 -169.253 14.0468 -178.031
lowerback -15.1978 0.475264 -2.37896
upperback -4.86197 1.50083 1.41335
thorax 3.27021 1.00349 3.11001
lowerneck 3.02689 2.7765 1.45746
upperneck 12.1246 4.64043 -1.17327
head 3.44744 2.64609 -0.516149
rclavicle 2.12121e-014 7.51033e-015
rhumerus 74.9744 -9.81083 -56.0448
rradius 126.13
rwrist -25.9692
rhand -2.80353 8.20385
rfingers 7.12502
rthumb 22.9025 -20.456
lclavicle 2.12121e-014 7.51033e-015
lhumerus -31.2351 -11.4878 99.5198
lradius 18.981
lwrist -31.6699
lhand 28.6858 29.5342
lfingers 7.12502
lthumb 52.5216 49.3248
rfemur -13.2496 14.4118 14.6147
rtibia 19.2836
rfoot -5.25998 -21.4345
rtoes -17.0139
lfemur -19.5024 -6.32102 -18.2853
ltibia 28.7331
lfoot -24.2902 6.23348
ltoes 0.736464
475
root -21.7555 16.3941 2.72319 -169.32 14.1058 -178.028
lowerback -15.1701 0.488944 -2.32922
upperback -4.83765 1.50691 1.39823
thorax 3.28223 1.00375 3.06648
lowerneck 3.2749 2.82421 1.78667
upperneck 11.802 4.74816 -1.78056
head 3.32028 2.68974 -0.775883
rclavicle 2.99093e-014 3.32343e-016
rhumerus 75.1346 -9.80223 -55.8445
rradius 125.851
rwrist -25.9325
rhand -3.00261 8.47099
rfingers 7.12502
rthumb 22.7115 -20.2124
lclavicle 2.99093e-014 3.32343e-016
lhumerus -31.2362 -11.4878 99.4663
lradius 18.9671
lwrist -31.5875
lhand 28.7676 29.5885
lfingers 7.12502
lthumb 52.5956 49.3336
rfemur -13.1717 14.5125 14.6105
rtibia 19.263
rfoot -5.21413 -21.4761
rtoes -17.0877
lfemur -19.431 -6.25096 -18.3148
ltibia 28.7569
lfoot -24.3318 6.21731
ltoes 0.654623
476
root -21.7621 16.3921 2.71748 -169.298 14.0729 -177.985
lowerback -15.2269 0.491434 -2.17606
upperback -4.83463 1.49038 1.39611
thorax 3.32088 0.995318 2.97634
lowerneck 3.63637 2.85032 2.04917
upperneck 11.4304 4.82191 -2.31765
head 3.15311 2.71951 -1.00408
rclavicle 2.42191e-015 1.58407e-016
rhumerus 75.243 -9.71914 -55.6937
rradius 125.608
rwrist -25.7691
rhand -2.92733 8.76774
rfingers 7.12502
rthumb 22.7837 -19.9068
lclavicle 2.42191e-015 1.58407e-016
lhumerus -31.2765 -11.4578 99.4385
lradius 18.9175
lwrist -31.7681
lhand 28.7159 29.5151
lfingers 7.12502
lthumb 52.5488 49.289
rfemur -13.1771 14.5644 14.6062
rtibia 19.2509
rfoot -5.14791 -21.5281
rtoes -17.4053
lfemur -19.4502 -6.56242 -18.2806
ltibia 28.7737
lfoot -24.2492 6.4348
ltoes 0.687454
477
root -21.771 16.3932 2.71361 -169.123 13.9604 -177.982
lowerback -15.3937 0.458557 -2.04644
upperback -4.86915 1.44133 1.38746
thorax 3.38047 0.974742 2.88967
lowerneck 3.61979 2.90756 1.98888
upperneck 11.4272 4.91812 -2.49492
head 3.16203 2.7607 -1.0493
rclavicle -8.80942e-015 1.33558e-014
rhumerus 75.4077 -9.6534 -55.5714
rradius 125.429
rwrist -25.5922
rhand -4.48204 8.63952
rfingers 7.12502
rthumb 21.291 -20.211
lclavicle -8.80942e-015 1.33558e-014
lhumerus -31.2402 -11.4647 99.4534
lradius 18.9542
lwrist -31.4286
lhand 28.5701 29.5501
lfingers 7.12502
lthumb 52.4169 49.4048
rfemur -13.3704 14.6755 14.5029
rtibia 19.2638
rfoot -5.04538 -21.7052
rtoes -17.5603
lfemur -19.6563 -7.07971 -18.244
ltibia 28.7743
lfoot -24.1757 6.84414
ltoes 0.649932
478
root -21.7755 16.3968 2.71923 -168.931 13.8154 -178.042
lowerback -15.483 0.407735 -2.07512
upperback -4.93625 1.39373 1.35289
thorax 3.36097 0.957431 2.86256
lowerneck 3.49649 2.96473 1.87756
upperneck 11.4938 4.99762 -2.50455
head 3.20667 2.79484 -1.02894
rclavicle -1.28239e-014 1.6965e-014
rhumerus 75.5179 -9.73517 -55.3971
rradius 125.259
rwrist -25.4531
rhand -4.68606 8.93235
rfingers 7.12502
rthumb 21.095 -19.9402
lclavicle -1.28239e-014 1.6965e-014
lhumerus -31.2103 -11.4532 99.392
lradius 18.8551
lwrist -31.6215
lhand 28.4298 29.4307
lfingers 7.12502
lthumb 52.2899 49.3626
rfemur -13.6095 14.76 14.376
rtibia 19.2976
rfoot -5.08165 -21.9271
rtoes -17.2242
lfemur -19.9338 -6.75028 -18.3033
ltibia 28.7607
lfoot -24.5017 6.70926
ltoes -0.378802
479
root -21.7761 16.3934 2.71702 -169.276 14.0195 -178.095
lowerback -15.1987 0.505739 -2.13914
upperback -4.81449 1.50175 1.33458
thorax 3.32896 0.99839 2.89203
lowerneck 3.50252 3.0026 1.7738
upperneck 11.3312 5.04177 -2.62135
head 3.15156 2.80463 -1.04973
rclavicle -2.36643e-014 2.29224e-015
rhumerus 75.5582 -9.86394 -55.1446
rradius 125.174
rwrist -25.4
rhand -3.43612 9.43505
rfingers 7.12502
rthumb 22.2954 -19.2987
lclavicle -2.36643e-014 2.29224e-015
lhumerus -31.1415 -11.368 99.3438
lradius 18.8399
lwrist -31.6744
lhand 28.5494 29.3939
lfingers 7.12502
lthumb 52.3981 49.2601
rfemur -13.2663 14.7564 14.4119
rtibia 19.3362
rfoot -5.2911 -21.7792
rtoes -16.9829
lfemur -19.5061 -6.15757 -18.4783
ltibia 28.7416
lfoot -24.8958 6.70998
ltoes -1.76698
480
root -21.7782 16.3922 2.71768 -169.322 14.1522 -178.086
lowerback -15.1298 0.536874 -2.09186
upperback -4.8125 1.53206 1.32636
thorax 3.29356 1.01255 2.85965
lowerneck 3.63287 3.02061 1.8231
upperneck 11.1601 5.09697 -3.01247
head 3.0862 2.82391 -1.18835
rclavicle 3.83394e-014 1.45299e-014
rhumerus 75.6185 -9.81828 -55.0069
rradius 125.07
rwrist -25.3186
rhand -3.85816 9.45858
rfingers 7.12502
rthumb 21.8902 -19.3231
lclavicle 3.83394e-014 1.45299e-014
lhumerus -31.1078 -11.0506 99.1654
lradius 18.7884
lwrist -32.0212
lhand 29.0964 29.3234
lfingers 7.12502
lthumb 52.8928 48.8835
rfemur -13.2588 14.7226 14.4247
rtibia 19.374
rfoot -5.32013 -21.6611
rtoes -17.014
lfemur -19.42 -6.00254 -18.4957
ltibia 28.7244
lfoot -24.6594 6.35819
ltoes -0.874874
